<?xml version="1.0" encoding="UTF-8"?>
<svg xmlns="http://www.w3.org/2000/svg" xmlns:xlink="http://www.w3.org/1999/xlink" width="24" height="24" viewBox="0 0 24 24" version="1.1">
<defs>
<linearGradient id="linear0" gradientUnits="userSpaceOnUse" x1="19.075" y1="18.782" x2="34.898" y2="34.658" gradientTransform="matrix(0.375,0,0,0.375,0,0)">
<stop offset="0" style="stop-color:rgb(21.960784%,49.411765%,72.156863%);stop-opacity:1;"/>
<stop offset="1" style="stop-color:rgb(21.176471%,41.176471%,58.039216%);stop-opacity:1;"/>
</linearGradient>
<linearGradient id="linear1" gradientUnits="userSpaceOnUse" x1="28.809" y1="28.882" x2="45.803" y2="45.163" gradientTransform="matrix(0.375,0,0,0.375,0,0)">
<stop offset="0" style="stop-color:rgb(100%,87.843137%,32.156863%);stop-opacity:1;"/>
<stop offset="1" style="stop-color:rgb(100%,76.470588%,19.215686%);stop-opacity:1;"/>
</linearGradient>
</defs>
<g id="surface1">
<path style=" stroke:none;fill-rule:nonzero;fill:url(#linear0);" d="M 11.957031 6 C 8.910156 6 9.101562 7.320312 9.101562 7.320312 L 9.105469 8.691406 L 12.011719 8.691406 L 12.011719 9.101562 L 7.949219 9.101562 C 7.949219 9.101562 6 8.878906 6 11.953125 C 6 15.027344 7.703125 14.917969 7.703125 14.917969 L 8.71875 14.917969 L 8.71875 13.492188 C 8.71875 13.492188 8.664062 11.789062 10.390625 11.789062 L 13.273438 11.789062 C 13.273438 11.789062 14.894531 11.816406 14.894531 10.226562 L 14.894531 7.59375 C 14.894531 7.59375 15.140625 6 11.957031 6 Z M 10.355469 6.921875 C 10.644531 6.921875 10.875 7.152344 10.875 7.445312 C 10.875 7.734375 10.644531 7.964844 10.355469 7.964844 C 10.214844 7.964844 10.082031 7.910156 9.984375 7.8125 C 9.886719 7.714844 9.832031 7.582031 9.832031 7.445312 C 9.832031 7.152344 10.066406 6.921875 10.355469 6.921875 Z M 10.355469 6.921875 "/>
<path style=" stroke:none;fill-rule:nonzero;fill:url(#linear1);" d="M 12.042969 17.9375 C 15.089844 17.9375 14.898438 16.617188 14.898438 16.617188 L 14.894531 15.246094 L 11.988281 15.246094 L 11.988281 14.835938 L 16.050781 14.835938 C 16.050781 14.835938 18 15.058594 18 11.984375 C 18 8.910156 16.296875 9.019531 16.296875 9.019531 L 15.28125 9.019531 L 15.28125 10.445312 C 15.28125 10.445312 15.335938 12.148438 13.609375 12.148438 L 10.726562 12.148438 C 10.726562 12.148438 9.105469 12.121094 9.105469 13.710938 L 9.105469 16.34375 C 9.105469 16.34375 8.859375 17.9375 12.042969 17.9375 Z M 13.644531 17.015625 C 13.507812 17.015625 13.375 16.960938 13.277344 16.863281 C 13.179688 16.765625 13.121094 16.632812 13.125 16.492188 C 13.125 16.207031 13.355469 15.972656 13.644531 15.972656 C 13.933594 15.972656 14.167969 16.203125 14.167969 16.492188 C 14.167969 16.785156 13.933594 17.015625 13.644531 17.015625 Z M 13.644531 17.015625 "/>
</g>
</svg>
